<?xml version="1.0" encoding="iso-8859-1"?>
<!-- Generator: Adobe Illustrator 19.0.0, SVG Export Plug-In . SVG Version: 6.00 Build 0)  -->
<svg version="1.1" id="Capa_1" xmlns="http://www.w3.org/2000/svg" xmlns:xlink="http://www.w3.org/1999/xlink" x="0px" y="0px"
	 viewBox="0 0 512 512" style="enable-background:new 0 0 512 512;" xml:space="preserve">
	<style type="text/css">
	    .color{fill:#f5b420}
    </style>
	<g class="color">
		<g>
			<g>
				<path d="M504.471,181.542V176c0-10.38-8.444-18.824-18.824-18.824c-10.12,0-18.376,8.032-18.784,18.054l-230.941-38.759h-10.039
					V112c0-12.456-10.133-22.588-22.588-22.588S180.706,99.544,180.706,112v24.471H67.765V112c0-12.456-10.133-22.588-22.588-22.588
					c-12.456,0-22.588,10.133-22.588,22.588v24.471H0v286.118h235.844L512,382.034V182.806L504.471,181.542z M481.882,176
					c0-2.076,1.689-3.765,3.765-3.765s3.765,1.689,3.765,3.765v3.014l-7.529-1.264V176z M195.765,112c0-4.152,3.377-7.529,7.529-7.529
					s7.529,3.377,7.529,7.529v24.471h-15.059V112z M37.647,112c0-4.152,3.377-7.529,7.529-7.529s7.529,3.377,7.529,7.529v24.471
					H37.647V112z M67.765,407.529H15.059v-256h52.706v15.059H30.118v225.882h37.647V407.529z M158.118,377.412h-15.059v-52.706H128
					v67.765h30.118v15.059H82.824v-15.059h30.118v-67.765H97.882v52.706H82.824v-15.059H67.765v15.059H45.176V181.647h22.588v15.059
					h15.059v-15.059h15.059v60.235h15.059v-75.294H82.824v-15.059h75.294v15.059H128v75.294h15.059v-60.235h15.059v15.059h15.059
					v-15.059h22.588v195.765h-22.588v-15.059h-15.059V377.412z M496.941,369.024l-256,37.595v-36.737h-15.059v37.647h-52.706V392.47
					h37.647V166.587h-37.647v-15.059h52.706v173.176h15.059V152.582l256,42.965V369.024z"/>
			</g>
		</g>
		<g>
			<g>
				<rect x="225.882" y="339.767" width="15.059" height="15.059"/>
			</g>
		</g>
		<g>
			<g>
				<rect x="67.765" y="211.767" width="15.059" height="15.059"/>
			</g>
		</g>
		<g>
			<g>
				<path d="M173.176,256.941v-15.059h-15.059v15.059H82.824v-15.059H67.765v15.059h-7.529v45.176h7.529v15.059h15.059v-15.059h75.294
					v15.059h15.059v-15.059h7.529v-45.176H173.176z M165.647,287.059H75.294V272h90.353V287.059z"/>
			</g>
		</g>
		<g>
			<g>
				<rect x="67.765" y="332.237" width="15.059" height="15.059"/>
			</g>
		</g>
		<g>
			<g>
				<rect x="158.118" y="211.767" width="15.059" height="15.059"/>
			</g>
		</g>
		<g>
			<g>
				<rect x="158.118" y="332.237" width="15.059" height="15.059"/>
			</g>
		</g>
		<g>
			<g>
				<rect x="271.059" y="181.649" width="15.059" height="195.765"/>
			</g>
		</g>
		<g>
			<g>
				<rect x="308.706" y="189.179" width="15.059" height="180.706"/>
			</g>
		</g>
		<g>
			<g>
				<rect x="346.353" y="196.708" width="15.059" height="165.647"/>
			</g>
		</g>
		<g>
			<g>
				<rect x="384" y="204.237" width="15.059" height="150.588"/>
			</g>
		</g>
		<g>
			<g>
				<rect x="421.647" y="211.767" width="15.059" height="135.529"/>
			</g>
		</g>
		<g>
			<g>
				<rect x="459.294" y="219.296" width="15.059" height="120.471"/>
			</g>
		</g>
	</g>
</svg>
