<?xml version="1.0" encoding="utf-8"?>
<!-- Generator: Adobe Illustrator 25.0.1, SVG Export Plug-In . SVG Version: 6.00 Build 0)  -->
<svg version="1.1" id="Layer_1" xmlns="http://www.w3.org/2000/svg" xmlns:xlink="http://www.w3.org/1999/xlink" x="0px" y="0px"
	 viewBox="0 0 1920 1080" style="enable-background:new 0 0 1920 1080;" xml:space="preserve">
<style type="text/css">
	.st2{fill:#F5B420;}
</style>
<g>
	<g>
		<path class="st2" d="M969.04,460.29C807.79,519.7,865.78,674.77,865.78,674.77s150.93,71.49,270.08-63.55
			c105.11-119.13-7.94-262.14-7.94-262.14S1119.97,404.69,969.04,460.29z"/>
		<path class="st2" d="M976.99,79c-197.42,0-357.46,160.04-357.46,357.46c0,197.42,160.04,357.46,357.46,357.46
			s357.46-160.04,357.46-357.46C1334.45,239.04,1174.41,79,976.99,79z M992.87,722.43c-250.22,28.68-293.91-166.81-293.91-166.81
			c47.66,63.55,119.15,87.38,116.81,63.55c-6.29-64.07-5.6-174.76,121.49-222.42s111.21-79.44,111.21-79.44
			c-63.55-127.1-265.82-63.55-265.82-63.55c179.02-95.32,281.7,0,281.7,0c-44.87-59.82-61.58-91.49-63.38-148.01
			c-0.16-5.1,5-7.99,9.95-6.76c85.71,21.24,150.14,51.06,220.25,130.93c0.3,0.34-39.96-23.92-40.35-24.14
			c-70.86-39.41-118.52-39.41-134.41-23.52c-11.23,11.23,143.39,129.15,166.81,246.25C1231.18,468.23,1243.09,693.75,992.87,722.43z
			"/>
	</g>
</g>
</svg>
