<?xml version="1.0" encoding="utf-8"?>
<!-- Generator: Adobe Illustrator 25.0.1, SVG Export Plug-In . SVG Version: 6.00 Build 0)  -->
<svg version="1.1" id="Layer_1" xmlns="http://www.w3.org/2000/svg" xmlns:xlink="http://www.w3.org/1999/xlink" x="0px" y="0px"
	 viewBox="0 0 1920 1080" style="enable-background:new 0 0 1920 1080;" xml:space="preserve">
<style type="text/css">
	.st0{fill:#F4AC26;}
	.st1{fill:#EFAE19;}
	.st2{fill:#F5B420;}
</style>
<g>
	<g>
		<path class="st0" d="M413.03,917.09v-6.04c11.49-1.54,11.99-3.43,9.46-10.78c-1.99-5.91-5.13-14.24-8.22-22.81h-36.49
			c-2.3,6.41-4.89,13.23-6.95,19.38c-3.85,11.36-0.15,12.78,14.29,14.21v6.04h-43.54v-6.04c11.36-1.43,14.25-2.9,20.45-18.25
			l37.45-92.61l7.64-1.43c11.48,30.83,23.81,63.22,35.4,93.35c6.36,16.2,7.98,17.5,20.08,18.93v6.04H413.03z M396.4,828.49
			c-5.42,13.72-10.84,27.14-15.67,40.52h30.44L396.4,828.49z"/>
		<path class="st0" d="M554.5,912.87c-10.06,1.37-20.98,3.69-31.93,6.36c0-3.55,0-8.58,0-12.68c-8.22,6.73-15.92,12.68-25.84,12.68
			c-14.07,0-23.25-8.81-23.25-25.93v-36.07c0-8.69-1.2-9.63-5.95-10.77l-4.23-1.01v-5.32c8.69-0.36,22.12-1.8,30.83-3.09
			c-0.42,6.86-0.54,15.87-0.54,26.59v25.38c0,13.02,6.77,17.13,13.72,17.13c5.62,0,10.53-1.69,15.26-6.36v-42.43
			c0-8.7-1.34-10.05-6.77-10.95l-5.54-0.95v-5.32c10.84-0.42,25.22-1.92,32.53-3.09v58.65c0,9.14,1.21,10.84,7.36,11.33l4.34,0.28
			V912.87z"/>
		<path class="st0" d="M599.71,917.14c-3.06,1.49-5.95,2.09-7.4,2.09c-13.07,0-20.6-6.61-20.6-22.14v-50.45h-11.86l-0.95-2.14
			l5.1-6.21h7.71v-14.85c5.18-4.03,12.75-9.36,18.06-13.39l2.47,1.06c-0.25,5.74-0.54,15.5-0.43,27.18h18.92
			c1.62,1.78,0.96,6.75-1.32,8.35h-17.6v44.34c0,14.09,5.77,16.06,9.64,16.06c3.51,0,6.48-0.9,9.47-2.16l1.75,5.8L599.71,917.14z"/>
		<path class="st0" d="M660.35,836.15c24.42,0,40.73,18.2,40.73,40.15c0,28.75-21.18,42.93-41.19,42.93
			c-26.41,0-41.8-20.12-41.8-40.66C618.08,850.69,640.87,836.15,660.35,836.15z M658.18,842.9c-8.89,0-17.28,8.91-17.28,30.38
			c0,22.28,8.34,39.02,20.91,39.02c8.36,0,16.46-5.82,16.46-31.26C678.26,857.64,671,842.9,658.18,842.9z"/>
		<path class="st0" d="M750.52,917.14c-3.06,1.49-5.94,2.09-7.4,2.09c-13.06,0-20.6-6.61-20.6-22.14v-50.45h-11.87l-0.95-2.14
			l5.1-6.21h7.71v-14.85c5.18-4.03,12.75-9.36,18.06-13.39l2.47,1.06c-0.23,5.74-0.54,15.5-0.42,27.18h18.91
			c1.63,1.78,0.98,6.75-1.3,8.35h-17.61v44.34c0,14.09,5.77,16.06,9.63,16.06c3.51,0,6.49-0.9,9.48-2.16l1.74,5.8L750.52,917.14z"/>
		<path class="st0" d="M815.54,917.09h-45.47v-5.68c10.19-1.07,11.16-1.97,11.16-12.97v-38.34c0-9.9-0.73-10.67-9.9-12.26v-5.15
			c10.36-1.32,19.77-3.46,30.01-6.97c0,5.88,0,13.61,0,19.38c7.49-11.23,14.37-18.96,22.33-18.96c6.67,0,11.28,4.33,11.28,9.94
			c0,7.11-5.12,11.73-8.13,13.28c-2.27,1.07-3.94,0.42-5.27-0.71c-2.93-2.56-5.21-5.03-8.35-5.03c-3.09,0-8.35,3.43-11.85,11.02
			v33.73c0,11.06,1.13,11.73,14.21,13.03V917.09z"/>
		<path class="st0" d="M900.75,919.23c-4.11,0-8.08-1.55-10.24-3.61c-2.47-2.2-3.66-4.7-4.56-7.09c-6.98,4.58-15.83,10.71-20,10.71
			c-14.57,0-23.64-11.43-23.64-22.62c0-9.18,4.51-13.96,14.2-17.58c10.77-3.86,24.76-8.25,28.86-11.7v-6.35
			c0-10.44-4.5-16.37-12.83-16.37c-3.44,0-5.97,1.61-7.65,3.75c-2.11,2.73-3.03,6.41-4.53,11.7c-1.13,4.13-3.57,5.37-6.87,5.37
			c-4.24,0-9.68-4.02-9.68-8.77c0-2.95,2.22-5.21,6.17-7.93c7.11-4.79,17.69-10.46,27.85-12.6c6.59,0,12.54,1.61,17.38,5.04
			c7.26,5.35,9.67,12.33,9.67,21.49v32.07c0,8.42,2.96,10.69,5.97,10.69c1.92,0,3.91-0.67,5.9-1.61l1.92,5.68L900.75,919.23z
			 M885.36,874.27c-3.51,1.85-8.64,4.31-12.44,6.21c-6.04,2.92-9.59,6.17-9.59,12.43c0,9.79,7.09,13.61,11.7,13.61
			c3.27,0,7.18-1.12,10.33-4.1C885.36,894.04,885.36,882.63,885.36,874.27z"/>
		<path class="st0" d="M977.13,917.09v-5.68c8.6-1.07,9.32-1.97,9.32-14.21v-30.08c0-12.6-5.68-18.07-13.95-18.07
			c-5.65,0-10.69,2.65-15.81,6.72v42.62c0,11.37,0.85,11.96,9.39,13.03v5.68h-40.83v-5.68c10.26-1.49,11.34-1.85,11.34-13.5v-36.93
			c0-11.02-1.38-11.54-9.94-13.14v-5.34c9.9-1.3,21.07-3.63,30.28-6.89c-0.11,3.06-0.23,9.11-0.23,13.27
			c3.61-2.5,7.46-5.17,11.79-7.85c5.29-3.21,9.15-4.89,14.4-4.89c14.54,0,23.68,10.52,23.68,28.38v33.74
			c0,11.42,1.09,11.95,10.36,13.14v5.68H977.13z"/>
		<path class="st0" d="M1074.9,860.77c-4.17-11.73-9.81-17.94-19.18-17.94c-5.49,0-10.12,3.88-10.12,10.19
			c0,6.73,4.76,10.19,14.38,14.48c14.93,6.72,24.09,12.54,24.09,25.8c0,17.31-16.45,25.93-31.63,25.93c-9.37,0-18.6-3.32-22.39-5.23
			c-0.79-4.47-2.42-15.89-3.01-22l5.69-1.01c3.6,11.29,10.61,21.36,22.65,21.36c6.86,0,11.09-4.28,11.09-10.26
			c0-6.41-3.46-10.5-14.07-15.59c-12.15-5.83-23.26-11.88-23.26-25.99c0-13.7,11.54-24.37,29.9-24.37c8.28,0,14.75,1.78,18.73,2.54
			c0.54,4.62,2.03,15.96,2.82,20.59L1074.9,860.77z"/>
		<path class="st0" d="M1104.16,955.58v-95.61c0-9.99-0.84-10.94-10.63-12.19v-5.51c9.18-1.37,20.32-4.62,30.73-7.9
			c0,3.94,0,9.4,0,13.33c0.42-0.23,13.09-7.62,13.7-7.87c4.44-2.54,8.35-3.68,11.28-3.68c19.84,0,31.45,17.44,31.45,34.74
			c0,26.38-21.18,43.6-44.56,48.34c-4.83-0.06-9.23-0.98-11.87-2.17v38.52H1104.16z M1124.27,903.9c3.68,3.63,10.47,6.72,15.61,6.72
			c11.7,0,19.81-12.09,19.81-31.57c0-20.99-11.12-30.24-21.47-30.24c-5.14,0-10.26,2.59-13.95,5.23V903.9z"/>
		<path class="st0" d="M1236.84,836.15c24.42,0,40.73,18.2,40.73,40.15c0,28.75-21.18,42.93-41.19,42.93
			c-26.42,0-41.8-20.12-41.8-40.66C1194.58,850.69,1217.37,836.15,1236.84,836.15z M1234.69,842.9c-8.89,0-17.3,8.91-17.3,30.38
			c0,22.28,8.35,39.02,20.91,39.02c8.36,0,16.46-5.82,16.46-31.26C1254.76,857.64,1247.5,842.9,1234.69,842.9z"/>
		<path class="st0" d="M1334.31,917.09h-45.47v-5.68c10.19-1.07,11.16-1.97,11.16-12.97v-38.34c0-9.9-0.73-10.67-9.9-12.26v-5.15
			c10.36-1.32,19.77-3.46,30.01-6.97c0,5.88,0,13.61,0,19.38c7.49-11.23,14.35-18.96,22.33-18.96c6.67,0,11.28,4.33,11.28,9.94
			c0,7.11-5.12,11.73-8.13,13.28c-2.27,1.07-3.94,0.42-5.28-0.71c-2.93-2.56-5.21-5.03-8.35-5.03c-3.09,0-8.35,3.43-11.85,11.02
			v33.73c0,11.06,1.13,11.73,14.21,13.03V917.09z"/>
		<path class="st0" d="M1402.04,917.14c-3.06,1.49-5.94,2.09-7.4,2.09c-13.06,0-20.6-6.61-20.6-22.14v-50.45h-11.87l-0.95-2.14
			l5.1-6.21h7.71v-14.85c5.18-4.03,12.75-9.36,18.06-13.39l2.47,1.06c-0.23,5.74-0.54,15.5-0.42,27.18h18.91
			c1.63,1.78,0.98,6.75-1.3,8.35h-17.61v44.34c0,14.09,5.77,16.06,9.63,16.06c3.51,0,6.49-0.9,9.48-2.16l1.74,5.8L1402.04,917.14z"
			/>
		<path class="st0" d="M1489.33,900.44c-11.19,15.41-24.98,18.79-31.93,18.79c-23.41,0-36.99-17.7-36.99-38.66
			c0-12.35,5.38-24.27,12.89-31.76c7.93-8.15,17.97-12.66,27.69-12.66c16.99,0,29.12,14.06,29,28.55c-0.06,3.21-0.36,5.74-2.78,6.35
			c-3.49,0.82-28.1,2.2-46.99,2.92c0.28,20.63,12.38,30.32,25.3,30.32c7.15,0,14.13-2.68,20.68-8.39L1489.33,900.44z
			 M1457.14,843.27c-7.59,0-14.41,8.13-16,22.33c8.33-0.11,16.32-0.23,24.98-0.53c2.78-0.12,3.85-0.67,3.85-3.57
			C1470.15,852.41,1465.25,843.27,1457.14,843.27z"/>
		<path class="st0" d="M1550.19,860.77c-4.19-11.73-9.81-17.94-19.18-17.94c-5.49,0-10.12,3.88-10.12,10.19
			c0,6.73,4.76,10.19,14.38,14.48c14.93,6.72,24.09,12.54,24.09,25.8c0,17.31-16.45,25.93-31.63,25.93c-9.37,0-18.6-3.32-22.39-5.23
			c-0.79-4.47-2.42-15.89-3.01-22l5.69-1.01c3.6,11.29,10.61,21.36,22.65,21.36c6.86,0,11.09-4.28,11.09-10.26
			c0-6.41-3.46-10.5-14.07-15.59c-12.15-5.83-23.26-11.88-23.26-25.99c0-13.7,11.54-24.37,29.9-24.37c8.28,0,14.75,1.78,18.73,2.54
			c0.53,4.62,2.03,15.96,2.82,20.59L1550.19,860.77z"/>
	</g>
	<rect x="346.57" y="930.2" class="st1" width="717.81" height="11.92"/>
	<rect x="1172.7" y="930.2" class="st1" width="384.18" height="11.92"/>
	<g>
		<path class="st1" d="M371.35,959.21c7.28,0,12.81,0.88,16.59,2.61c4.61,2.09,7.18,5.15,7.18,9.53c0,9.22-11.33,13.08-21.19,13.14
			c-0.92,0-2.12-0.06-2.76-0.12l-5.34-0.95v8.64c0,5.32,0.64,5.59,8.66,6.1v2.34h-29.29v-2.34c6.91-0.57,7.83-0.78,7.83-6.1v-24.27
			c0-5.34-0.92-5.91-7.83-6.22v-2.36H371.35z M365.83,980.75c1.1,0.37,2.95,0.64,4.88,0.64c4.24,0,11.15-1.72,11.15-10.1
			c0-7.12-5.62-9.46-11.61-9.46c-1.93,0-3.04,0.31-3.59,0.64c-0.64,0.37-0.83,1.01-0.83,1.97V980.75z"/>
		<path class="st1" d="M444.29,1000.5v-2.34c5.81-0.57,5.81-1.27,4.51-4c-0.92-1.91-2.4-4.76-3.78-7.31h-17.96
			c-1.02,1.97-2.3,4.38-3.23,6.35c-1.93,4,0.28,4.51,7.56,4.96v2.34h-22.75v-2.34c5.8-0.51,7.28-1.09,10.41-6.42l19.16-32.83
			l4.42-0.57c5.9,11.05,12.16,22.36,18.14,32.95c3.41,5.91,4.24,6.36,10.22,6.87v2.34H444.29z M436.19,970.13
			c-2.67,4.58-5.24,8.83-7.55,13.47h14.65L436.19,970.13z"/>
		<path class="st1" d="M557.05,961.57c-5.62,0.5-7.37,1.33-7.65,4.19c-0.27,2.47-0.55,4.64-0.55,10.16v25.27h-5.16l-38.41-31.76
			v14.35c0,5.52,0.19,8.01,0.47,9.85c0.36,2.79,2.3,4.25,9.11,4.51v2.34h-22.85v-2.34c5.25-0.33,7.56-1.27,8.11-4.27
			c0.37-2.28,0.55-4.58,0.55-10.1v-15.05c0-2.09-0.18-3.49-1.93-5.14c-1.66-1.6-3.87-1.78-7.73-2.03v-2.36h17.96l35.1,28.14v-11.43
			c0-5.52-0.09-7.63-0.37-9.98c-0.28-2.73-1.75-4.06-9.39-4.38v-2.36h22.75V961.57z"/>
		<path class="st1" d="M633.61,970.2c-1.02-2.92-3.04-5.34-3.96-6.22c-1.66-1.33-2.4-1.85-7.83-1.85h-5.9v29.85
			c0,5.34,0.92,5.72,9.11,6.17v2.34h-30.58v-2.34c7.83-0.45,8.66-0.84,8.66-6.17v-29.85h-5.62c-5.15,0-6.62,0.57-8.38,2.09
			c-1.29,1.21-2.58,3.51-3.78,6.04h-3.5c0.64-4.62,1.29-9.59,1.47-12.63h2.76c1.38,1.46,2.49,1.58,5.25,1.58h36.85
			c2.49,0,3.78-0.37,5.34-1.58h2.67c0.09,2.67,0.46,8.25,0.92,12.38L633.61,970.2z"/>
		<path class="st1" d="M687.03,1000.5v-2.34c5.8-0.57,5.8-1.27,4.51-4c-0.93-1.91-2.4-4.76-3.79-7.31H669.8
			c-1.02,1.97-2.3,4.38-3.23,6.35c-1.93,4,0.28,4.51,7.56,4.96v2.34h-22.75v-2.34c5.8-0.51,7.28-1.09,10.41-6.42l19.16-32.83
			l4.42-0.57c5.9,11.05,12.16,22.36,18.15,32.95c3.4,5.91,4.24,6.36,10.22,6.87v2.34H687.03z M678.92,970.13
			c-2.67,4.58-5.24,8.83-7.55,13.47h14.64L678.92,970.13z"/>
		<path class="st1" d="M792.03,989.57c-1.29,3.18-3.69,8.01-5.17,10.22c-2.39,0.39-9.94,1.64-16.94,1.64
			c-24.79,0-35.02-10.98-35.02-21.08c0-13.14,14.57-22.03,36.66-22.03c8.02,0,15.11,1.33,17.42,1.52c0.45,2.98,1.1,7.68,1.75,10.47
			l-3.69,0.45c-1.94-4.95-4.7-7.31-9.59-8.64c-2.2-0.64-5.52-0.88-8.01-0.88c-13.36,0-20.08,7.68-20.08,17.66
			c0,11.62,8.66,19.5,21.27,19.5c7.74,0,12.89-2.79,17.87-9.79L792.03,989.57z"/>
		<path class="st1" d="M850.63,958.33c17.04,0,30.94,8.56,30.94,21.08c0,13.53-13.99,22.03-31.4,22.03
			c-18.43,0-31.79-9.26-31.79-21.52C818.38,969.06,829.63,958.33,850.63,958.33z M849.24,961.12c-9.39,0-16.29,6.35-16.29,17.59
			c0,10.74,6.16,19.94,18.6,19.94c8.75,0,15.56-5.83,15.56-17.47C867.11,968.61,859.93,961.12,849.24,961.12z"/>
		<path class="st1" d="M980.93,969.7c-1.85-4.06-4.42-8.7-12.89-8.7c-5.35,0-8.84,2.61-8.84,6.16c0,3.49,3.41,5.59,11.51,8.38
			c9.85,3.37,16.12,6.67,16.12,12.95c0,7.49-9.03,12.95-22.2,12.95c-5.9,0-11.14-1.07-15.47-1.95c-0.56-1.47-2.13-8.07-2.76-11.06
			l3.58-0.57c1.85,4,7,10.92,16.03,10.92c5.62,0,9.03-2.4,9.03-6.47c0-3.69-3.32-5.85-11.05-8.7c-9.59-3.55-15.86-6.73-15.86-13.34
			c0-6.66,7.56-11.93,21.38-11.93c6.36,0,11.14,0.95,13.17,1.13c0.37,2.36,1.01,5.66,1.75,9.67L980.93,969.7z"/>
		<path class="st1" d="M1082.38,1000.5v-2.34c5.8-0.57,5.8-1.27,4.51-4c-0.93-1.91-2.4-4.76-3.79-7.31h-17.97
			c-1.01,1.97-2.3,4.38-3.21,6.35c-1.94,4,0.26,4.51,7.54,4.96v2.34h-22.74v-2.34c5.8-0.51,7.28-1.09,10.41-6.42l19.16-32.83
			l4.42-0.57c5.9,11.05,12.16,22.36,18.15,32.95c3.4,5.91,4.24,6.36,10.22,6.87v2.34H1082.38z M1074.27,970.13
			c-2.67,4.58-5.24,8.83-7.56,13.47h14.65L1074.27,970.13z"/>
		<path class="st1" d="M1195.72,959.21c11.79,0,20.45,1.72,26.34,5.52c4.7,2.99,8.3,7.43,8.3,13.85c0,7.29-4.42,12.89-11.51,16.57
			c-6.83,3.55-15.58,5.34-26.08,5.34h-25.32v-2.34c7-0.39,7.82-0.96,7.82-6.24v-24.13c0-5.34-1.01-5.85-7.82-6.22v-2.36H1195.72z
			 M1188.09,991.48c0,4.5,1.64,6.04,8.38,6.04c12.43,0,19.61-5.97,19.61-17.98c0-6.04-2.39-11.31-6.62-14.04
			c-3.86-2.67-8.66-3.55-14.83-3.55c-3.41,0-4.98,0.51-5.52,0.88c-0.84,0.57-1.01,1.66-1.01,3.51V991.48z"/>
		<path class="st1" d="M1307.47,989.7c-0.45,1.72-3.04,9.01-3.86,10.8h-47.82v-2.28c8.39-0.57,8.94-0.9,8.94-6.24v-24.25
			c0-5.4-1.1-5.79-7.37-6.16v-2.36h29.94c9.67,0,12.89-0.06,14.18-0.12c0.09,1.15,0.56,6.35,0.93,10.29l-3.6,0.33
			c-0.82-2.17-2.39-4.78-3.96-5.91c-1.66-1.27-2.85-1.66-7.56-1.66h-5.99c-3.51,0-3.86,0.14-3.86,2.3v13.27h9.01
			c5.17,0,6.08-0.95,7.46-5.46h3.6v14.16h-3.6c-1.47-4.7-2.2-5.46-7.54-5.46h-8.94v10.92c0,4.39,0.17,5.72,5.9,5.79h6.53
			c5.17,0,6.55-0.45,8.56-2.16c2.31-1.85,4.14-4.2,5.63-6.36L1307.47,989.7z"/>
		<path class="st1" d="M1427.54,989.57c-1.3,3.18-3.69,8.01-5.17,10.22c-2.39,0.39-9.94,1.64-16.94,1.64
			c-24.79,0-35.02-10.98-35.02-21.08c0-13.14,14.55-22.03,36.68-22.03c8.01,0,15.1,1.33,17.41,1.52c0.45,2.98,1.1,7.68,1.74,10.47
			l-3.68,0.45c-1.94-4.95-4.7-7.31-9.57-8.64c-2.22-0.64-5.54-0.88-8.02-0.88c-13.36,0-20.08,7.68-20.08,17.66
			c0,11.62,8.66,19.5,21.27,19.5c7.74,0,12.89-2.79,17.87-9.79L1427.54,989.57z"/>
		<path class="st1" d="M1550.09,961.57c-6.08,0.43-7.93,1.01-11.42,7.04c-2.85,4.89-12.35,20.63-19.16,32.58h-5.07
			c-2.58-4.95-14.55-26.73-18.42-33.47c-2.85-4.76-4.06-5.79-10.04-6.16v-2.36h28.1l-0.09,2.36c-6.73,0.62-6.73,1.07-5.26,3.74
			c2.85,5.34,9.76,18.42,12.89,24c5.54-9.08,10.5-17.72,12.63-21.84c2.3-4.38,1.66-5.34-6.08-5.9v-2.36h21.92V961.57z"/>
	</g>
	<g>
		<path class="st2" d="M969.04,460.29C807.79,519.7,865.78,674.77,865.78,674.77s150.93,71.49,270.08-63.55
			c105.11-119.13-7.94-262.14-7.94-262.14S1119.97,404.69,969.04,460.29z"/>
		<path class="st2" d="M976.99,79c-197.42,0-357.46,160.04-357.46,357.46c0,197.42,160.04,357.46,357.46,357.46
			s357.46-160.04,357.46-357.46C1334.45,239.04,1174.41,79,976.99,79z M992.87,722.43c-250.22,28.68-293.91-166.81-293.91-166.81
			c47.66,63.55,119.15,87.38,116.81,63.55c-6.29-64.07-5.6-174.76,121.49-222.42s111.21-79.44,111.21-79.44
			c-63.55-127.1-265.82-63.55-265.82-63.55c179.02-95.32,281.7,0,281.7,0c-44.87-59.82-61.58-91.49-63.38-148.01
			c-0.16-5.1,5-7.99,9.95-6.76c85.71,21.24,150.14,51.06,220.25,130.93c0.3,0.34-39.96-23.92-40.35-24.14
			c-70.86-39.41-118.52-39.41-134.41-23.52c-11.23,11.23,143.39,129.15,166.81,246.25C1231.18,468.23,1243.09,693.75,992.87,722.43z
			"/>
	</g>
</g>
</svg>
